# xmcd
#
# Track frame offsets: 
#        150
#        10505
#        22102
#        34012
#        44940
#        54315
#        63780
#        74987
#        84290
#        95250
#        112475
#        123675
#        132380
#        143107
#        152650
#        161860
#        173915
#        186320
#        197407
#
# Disc length: 2784 seconds
#
# Revision: 3
# Processed by: cddbd v1.5.2PL0 Copyright (c) Steve Scherf et al.
# Submitted via: ExactAudioCopy v1.0b2
#
DISCID=170ade13
DTITLE=Chet Atkins - Mr. Atkins - Guitar Picker and Finger Pickin' Good
DYEAR=2004
DGENRE=Country
TTITLE0=Kicky
TTITLE1=You're Just In Love
TTITLE2=Early Times
TTITLE3=Walk, Don't Run
TTITLE4=El Cumbanchero
TTITLE5=Anna
TTITLE6=Love Letters
TTITLE7=Yankee Doodle Dixie
TTITLE8=Shadow Waltz
TTITLE9=Satan's Doll
TTITLE10=Wheels
TTITLE11=Levee Walking
TTITLE12=Cattle Call
TTITLE13=Old Joe Clark
TTITLE14=Yakety Axe
TTITLE15=How's The World Treating You
TTITLE16=Wimoweh
TTITLE17=Blowin' In The Wind
TTITLE18=Back To Old Smoky Mountain
EXTD=
EXTT0=
EXTT1=
EXTT2=
EXTT3=
EXTT4=
EXTT5=
EXTT6=
EXTT7=
EXTT8=
EXTT9=
EXTT10=
EXTT11=
EXTT12=
EXTT13=
EXTT14=
EXTT15=
EXTT16=
EXTT17=
EXTT18=
PLAYORDER=
